<svg width="82" height="82" viewBox="0 0 82 82" fill="none" xmlns="http://www.w3.org/2000/svg">
<g id="Frame 233">
<g id="Group 143">
<g id="Ellipse 12" filter="url(#filter0_d_1729_11768)">
<circle cx="41" cy="38" r="30" fill="white"/>
<circle cx="41" cy="38" r="30" stroke="#9C9C9C"/>
</g>
<g id="link">
<mask id="mask0_1729_11768" style="mask-type:alpha" maskUnits="userSpaceOnUse" x="21" y="18" width="40" height="40">
<rect id="Bounding box" x="21" y="18" width="40" height="40" fill="#D9D9D9"/>
</mask>
<g mask="url(#mask0_1729_11768)">
<path id="link_2" d="M38.6925 44.7951H32.795C30.915 44.7951 29.3125 44.1327 27.9875 42.808C26.6625 41.4833 26 39.8812 26 38.0017C26 36.1223 26.6625 34.5197 27.9875 33.1938C29.3125 31.868 30.915 31.2051 32.795 31.2051H38.6925V32.8717H32.795C31.3847 32.8717 30.1774 33.374 29.1729 34.3784C28.1687 35.3826 27.6667 36.5898 27.6667 38.0001C27.6667 39.4104 28.1687 40.6176 29.1729 41.6217C30.1774 42.6262 31.3847 43.1284 32.795 43.1284H38.6925V44.7951ZM35.1667 38.8334V37.1667H46.8333V38.8334H35.1667ZM43.3075 44.7951V43.1284H49.205C50.6153 43.1284 51.8226 42.6262 52.8271 41.6217C53.8313 40.6176 54.3333 39.4104 54.3333 38.0001C54.3333 36.5898 53.8313 35.3826 52.8271 34.3784C51.8226 33.374 50.6153 32.8717 49.205 32.8717H43.3075V31.2051H49.205C51.085 31.2051 52.6875 31.8674 54.0125 33.1922C55.3375 34.5169 56 36.119 56 37.9984C56 39.8779 55.3375 41.4805 54.0125 42.8063C52.6875 44.1322 51.085 44.7951 49.205 44.7951H43.3075Z" fill="#9C9C9C"/>
</g>
</g>
</g>
</g>
<defs>
<filter id="filter0_d_1729_11768" x="0.5" y="0.5" width="81" height="81" filterUnits="userSpaceOnUse" color-interpolation-filters="sRGB">
<feFlood flood-opacity="0" result="BackgroundImageFix"/>
<feColorMatrix in="SourceAlpha" type="matrix" values="0 0 0 0 0 0 0 0 0 0 0 0 0 0 0 0 0 0 127 0" result="hardAlpha"/>
<feOffset dy="3"/>
<feGaussianBlur stdDeviation="5"/>
<feComposite in2="hardAlpha" operator="out"/>
<feColorMatrix type="matrix" values="0 0 0 0 0.85098 0 0 0 0 0.85098 0 0 0 0 0.85098 0 0 0 1 0"/>
<feBlend mode="normal" in2="BackgroundImageFix" result="effect1_dropShadow_1729_11768"/>
<feBlend mode="normal" in="SourceGraphic" in2="effect1_dropShadow_1729_11768" result="shape"/>
</filter>
</defs>
</svg>
