<svg width="72" height="72" viewBox="0 0 72 72" fill="none" xmlns="http://www.w3.org/2000/svg">
<g id="Frame 577" clip-path="url(#clip0_2032_5527)">
<g id="Ellipse 12" filter="url(#filter0_d_2032_5527)">
<circle cx="36" cy="36" r="30" fill="white"/>
<circle cx="36" cy="36" r="30" stroke="#9C9C9C"/>
</g>
<g id="favorite">
<mask id="mask0_2032_5527" style="mask-type:alpha" maskUnits="userSpaceOnUse" x="16" y="16" width="40" height="40">
<rect id="Bounding box" x="16" y="16" width="40" height="40" fill="#D9D9D9"/>
</mask>
<g mask="url(#mask0_2032_5527)">
<path id="favorite_2" d="M35.874 48.5L33.8985 46.7289C31.6051 44.6626 29.7091 42.8801 28.2105 41.3815C26.7119 39.8828 25.5198 38.5375 24.6342 37.3454C23.7486 36.1533 23.1299 35.0577 22.7779 34.0586C22.426 33.0595 22.25 32.0377 22.25 30.9932C22.25 28.8588 22.9653 27.0763 24.3958 25.6458C25.8263 24.2153 27.6088 23.5 29.7432 23.5C30.9239 23.5 32.0479 23.7498 33.1151 24.2493C34.1823 24.7489 35.102 25.4528 35.874 26.361C36.646 25.4528 37.5656 24.7489 38.6328 24.2493C39.7 23.7498 40.824 23.5 42.0048 23.5C44.1392 23.5 45.9217 24.2153 47.3522 25.6458C48.7827 27.0763 49.498 28.8588 49.498 30.9932C49.498 32.0377 49.322 33.0595 48.97 34.0586C48.6181 35.0577 47.9993 36.1533 47.1138 37.3454C46.2282 38.5375 45.0361 39.8828 43.5375 41.3815C42.0388 42.8801 40.1428 44.6626 37.8495 46.7289L35.874 48.5Z" fill="#D33248"/>
</g>
</g>
</g>
<defs>
<filter id="filter0_d_2032_5527" x="-4.5" y="-1.5" width="81" height="81" filterUnits="userSpaceOnUse" color-interpolation-filters="sRGB">
<feFlood flood-opacity="0" result="BackgroundImageFix"/>
<feColorMatrix in="SourceAlpha" type="matrix" values="0 0 0 0 0 0 0 0 0 0 0 0 0 0 0 0 0 0 127 0" result="hardAlpha"/>
<feOffset dy="3"/>
<feGaussianBlur stdDeviation="5"/>
<feComposite in2="hardAlpha" operator="out"/>
<feColorMatrix type="matrix" values="0 0 0 0 0.85098 0 0 0 0 0.85098 0 0 0 0 0.85098 0 0 0 1 0"/>
<feBlend mode="normal" in2="BackgroundImageFix" result="effect1_dropShadow_2032_5527"/>
<feBlend mode="normal" in="SourceGraphic" in2="effect1_dropShadow_2032_5527" result="shape"/>
</filter>
<clipPath id="clip0_2032_5527">
<rect width="72" height="72" fill="white"/>
</clipPath>
</defs>
</svg>
