<svg width="64" height="64" viewBox="0 0 64 64" fill="none" xmlns="http://www.w3.org/2000/svg">
<circle cx="32" cy="32" r="30" fill="white" stroke="#084951" stroke-width="3"/>
<path fill-rule="evenodd" clip-rule="evenodd" d="M26.9982 24.1429H36.0018C37.1198 24.1428 38.0425 24.1428 38.7942 24.206C39.5749 24.2716 40.2925 24.4124 40.9666 24.7657C42.012 25.3135 42.8618 26.1877 43.3945 27.2629C43.7379 27.9562 43.8748 28.6944 43.9386 29.4974C44 30.2705 44 31.2196 44 32.3695V38.7733C44 39.9233 44 40.8723 43.9386 41.6455C43.8748 42.4485 43.7379 43.1866 43.3945 43.8799C42.8618 44.9552 42.012 45.8293 40.9666 46.3772C40.2925 46.7305 39.5749 46.8713 38.7942 46.9369C38.0425 47 37.1198 47 36.0018 47H26.9982C25.8802 47 24.9575 47 24.2058 46.9369C23.4251 46.8713 22.7075 46.7305 22.0334 46.3772C20.988 45.8293 20.1382 44.9552 19.6055 43.8799C19.2621 43.1866 19.1252 42.4485 19.0614 41.6455C19 40.8723 19 39.9232 19 38.7733V32.3696C19 31.2196 19 30.2705 19.0614 29.4974C19.1252 28.6944 19.2621 27.9562 19.6055 27.2629C20.1382 26.1877 20.988 25.3135 22.0334 24.7657C22.7075 24.4124 23.4251 24.2716 24.2058 24.206C24.9575 24.1428 25.8802 24.1428 26.9982 24.1429ZM24.432 27.0536C23.8231 27.1048 23.5117 27.1976 23.2945 27.3114C22.7718 27.5853 22.3469 28.0224 22.0805 28.56C21.9699 28.7835 21.8797 29.1037 21.8299 29.7301C21.7789 30.373 21.7778 31.2049 21.7778 32.4286V38.7143C21.7778 39.938 21.7789 40.7698 21.8299 41.4128C21.8797 42.0391 21.9699 42.3594 22.0805 42.5828C22.3469 43.1204 22.7718 43.5575 23.2945 43.8314C23.5117 43.9453 23.8231 44.038 24.432 44.0892C25.0571 44.1417 25.8659 44.1429 27.0556 44.1429H35.9444C37.1341 44.1429 37.9429 44.1417 38.568 44.0892C39.1769 44.038 39.4883 43.9453 39.7055 43.8314C40.2282 43.5575 40.6531 43.1204 40.9195 42.5828C41.0301 42.3594 41.1203 42.0391 41.1701 41.4128C41.2211 40.7698 41.2222 39.938 41.2222 38.7143V32.4286C41.2222 31.2049 41.2211 30.373 41.1701 29.7301C41.1203 29.1037 41.0301 28.7835 40.9195 28.56C40.6531 28.0224 40.2282 27.5853 39.7055 27.3114C39.4883 27.1976 39.1769 27.1048 38.568 27.0536C37.9429 27.0011 37.1341 27 35.9444 27H27.0556C25.8659 27 25.0571 27.0011 24.432 27.0536Z" fill="#084951"/>
<path fill-rule="evenodd" clip-rule="evenodd" d="M28.7223 20.4714L28.7222 21.2858C28.7222 22.0748 28.1003 22.7143 27.3333 22.7143C26.5662 22.7142 25.9444 22.0746 25.9444 21.2856L25.9445 19.8571C25.9446 19.4886 26.083 19.1344 26.3309 18.8684C26.6677 18.5071 27.1702 17.9816 28.0485 17.5897C28.8979 17.2106 29.9932 17 31.5001 17C33.0069 17 34.1023 17.2106 34.9517 17.5897C35.8299 17.9817 36.3324 18.5071 36.6691 18.8684C36.9171 19.1344 37.0556 19.4886 37.0556 19.8571V21.2857C37.0556 22.0747 36.4337 22.7143 35.6667 22.7143C34.8996 22.7143 34.2778 22.0747 34.2778 21.2857V20.4714C34.1548 20.3727 34.0201 20.2885 33.846 20.2108C33.4573 20.0373 32.7709 19.8571 31.5001 19.8571C30.2292 19.8571 29.5428 20.0373 29.1541 20.2108C28.98 20.2885 28.8452 20.3727 28.7223 20.4714Z" fill="#084951"/>
<path fill-rule="evenodd" clip-rule="evenodd" d="M26.2222 37.5714C26.6825 36.9402 27.553 36.8123 28.1667 37.2857C29.287 38.15 30.373 38.4292 31.4992 38.4286C32.6255 38.4279 33.7139 38.1492 34.8333 37.2857C35.447 36.8123 36.3175 36.9402 36.7778 37.5714C37.238 38.2026 37.1136 39.098 36.5 39.5714C34.8416 40.8508 33.1499 41.2848 31.5008 41.2857C29.8468 41.2866 28.1575 40.85 26.5 39.5714C25.8864 39.098 25.762 38.2026 26.2222 37.5714Z" fill="#084951"/>
<path d="M24.5556 33.4286C24.5556 32.2451 25.4883 31.2857 26.6389 31.2857C27.7895 31.2857 28.7222 32.2451 28.7222 33.4286C28.7222 34.612 27.7895 35.5714 26.6389 35.5714C25.4883 35.5714 24.5556 34.612 24.5556 33.4286Z" fill="#084951"/>
<path d="M34.2778 33.4286C34.2778 32.2451 35.2105 31.2857 36.3611 31.2857C37.5117 31.2857 38.4444 32.2451 38.4444 33.4286C38.4444 34.612 37.5117 35.5714 36.3611 35.5714C35.2105 35.5714 34.2778 34.612 34.2778 33.4286Z" fill="#084951"/>
</svg>
