<svg width="30" height="30" viewBox="0 0 30 30" fill="none" xmlns="http://www.w3.org/2000/svg">
<g id="kid_star">
<mask id="mask0_2037_10503" style="mask-type:alpha" maskUnits="userSpaceOnUse" x="0" y="0" width="30" height="30">
<rect id="Bounding box" width="30" height="30" fill="#D9D9D9"/>
</mask>
<g mask="url(#mask0_2037_10503)">
<path id="kid_star_2" d="M9.53125 8L13.0312 3.46875C13.2812 3.13542 13.5781 2.89062 13.9219 2.73438C14.2656 2.57812 14.625 2.5 15 2.5C15.375 2.5 15.7344 2.57812 16.0781 2.73438C16.4219 2.89062 16.7188 3.13542 16.9688 3.46875L20.4688 8L25.7812 9.78125C26.3229 9.94792 26.75 10.2552 27.0625 10.7031C27.375 11.151 27.5312 11.6458 27.5312 12.1875C27.5312 12.4375 27.4948 12.6875 27.4219 12.9375C27.349 13.1875 27.2292 13.4271 27.0625 13.6562L23.625 18.5312L23.75 23.6563C23.7708 24.3854 23.5313 25 23.0313 25.5C22.5313 26 21.9479 26.25 21.2812 26.25C21.2396 26.25 21.0104 26.2188 20.5938 26.1563L15 24.5938L9.40625 26.1563C9.30208 26.1979 9.1875 26.224 9.0625 26.2344C8.9375 26.2448 8.82292 26.25 8.71875 26.25C8.05208 26.25 7.46875 26 6.96875 25.5C6.46875 25 6.22917 24.3854 6.25 23.6563L6.375 18.5L2.96875 13.6562C2.80208 13.4271 2.68229 13.1875 2.60938 12.9375C2.53646 12.6875 2.5 12.4375 2.5 12.1875C2.5 11.6667 2.65104 11.1823 2.95312 10.7344C3.25521 10.2865 3.67708 9.96875 4.21875 9.78125L9.53125 8Z" fill="#DC5B6D"/>
</g>
</g>
</svg>
