<svg width="40" height="40" viewBox="0 0 40 40" fill="none" xmlns="http://www.w3.org/2000/svg">
<mask id="mask0_1526_4335" style="mask-type:alpha" maskUnits="userSpaceOnUse" x="0" y="0" width="40" height="40">
<rect width="40" height="40" fill="#D9D9D9"/>
</mask>
<g mask="url(#mask0_1526_4335)">
<path d="M8.84592 34.1663C8.00398 34.1663 7.29134 33.8747 6.70801 33.2913C6.12467 32.708 5.83301 31.9954 5.83301 31.1534V8.84592C5.83301 8.00398 6.12467 7.29134 6.70801 6.70801C7.29134 6.12467 8.00398 5.83301 8.84592 5.83301H20.0155V8.33301H8.84592C8.71759 8.33301 8.60009 8.38648 8.49342 8.49342C8.38648 8.60009 8.33301 8.71759 8.33301 8.84592V31.1534C8.33301 31.2818 8.38648 31.3993 8.49342 31.5059C8.60009 31.6129 8.71759 31.6663 8.84592 31.6663H20.0155V34.1663H8.84592ZM27.0509 27.1151L25.3201 25.3072L29.378 21.2497H15.1601V18.7497H29.378L25.3201 14.6922L27.0509 12.8843L34.1663 19.9997L27.0509 27.1151Z" fill="#137870"/>
</g>
</svg>
