<svg width="20" height="20" viewBox="0 0 20 20" fill="none" xmlns="http://www.w3.org/2000/svg">
<mask id="mask0_2595_6035" style="mask-type:alpha" maskUnits="userSpaceOnUse" x="0" y="0" width="20" height="20">
<rect width="20" height="20" fill="#D9D9D9"/>
</mask>
<g mask="url(#mask0_2595_6035)">
<path d="M10 9.99967C9.08337 9.99967 8.29865 9.67329 7.64587 9.02051C6.9931 8.36773 6.66671 7.58301 6.66671 6.66634C6.66671 5.74967 6.9931 4.96495 7.64587 4.31217C8.29865 3.6594 9.08337 3.33301 10 3.33301C10.9167 3.33301 11.7014 3.6594 12.3542 4.31217C13.007 4.96495 13.3334 5.74967 13.3334 6.66634C13.3334 7.58301 13.007 8.36773 12.3542 9.02051C11.7014 9.67329 10.9167 9.99967 10 9.99967ZM3.33337 16.6663V14.333C3.33337 13.8608 3.4549 13.4268 3.69796 13.0309C3.94101 12.6351 4.26393 12.333 4.66671 12.1247C5.52782 11.6941 6.40282 11.3712 7.29171 11.1559C8.1806 10.9406 9.08337 10.833 10 10.833C10.9167 10.833 11.8195 10.9406 12.7084 11.1559C13.5973 11.3712 14.4723 11.6941 15.3334 12.1247C15.7362 12.333 16.0591 12.6351 16.3021 13.0309C16.5452 13.4268 16.6667 13.8608 16.6667 14.333V16.6663H3.33337Z" fill="white"/>
</g>
</svg>
