<svg width="32" height="32" viewBox="0 0 32 32" fill="none" xmlns="http://www.w3.org/2000/svg">
<mask id="mask0_1805_1685" style="mask-type:alpha" maskUnits="userSpaceOnUse" x="0" y="0" width="32" height="32">
<rect x="0.344948" y="0.624023" width="31.0345" height="31.0345" fill="#D9D9D9"/>
</mask>
<g mask="url(#mask0_1805_1685)">
<path d="M31.4002 33.7793L21.9502 24.3293C21.2002 24.9293 20.3377 25.4043 19.3627 25.7543C18.3877 26.1043 17.3502 26.2793 16.2502 26.2793C13.5252 26.2793 11.219 25.3355 9.33149 23.448C7.44399 21.5605 6.50024 19.2543 6.50024 16.5293C6.50024 13.8043 7.44399 11.498 9.33149 9.61055C11.219 7.72305 13.5252 6.7793 16.2502 6.7793C18.9752 6.7793 21.2815 7.72305 23.169 9.61055C25.0565 11.498 26.0002 13.8043 26.0002 16.5293C26.0002 17.6293 25.8252 18.6668 25.4752 19.6418C25.1252 20.6168 24.6502 21.4793 24.0502 22.2293L33.5002 31.6793L31.4002 33.7793ZM16.2502 23.2793C18.1252 23.2793 19.719 22.623 21.0315 21.3105C22.344 19.998 23.0002 18.4043 23.0002 16.5293C23.0002 14.6543 22.344 13.0605 21.0315 11.748C19.719 10.4355 18.1252 9.7793 16.2502 9.7793C14.3752 9.7793 12.7815 10.4355 11.469 11.748C10.1565 13.0605 9.50024 14.6543 9.50024 16.5293C9.50024 18.4043 10.1565 19.998 11.469 21.3105C12.7815 22.623 14.3752 23.2793 16.2502 23.2793Z" fill="#121212"/>
</g>
</svg>
