<svg width="37" height="37" viewBox="0 0 37 37" fill="#9C9C9C" xmlns="http://www.w3.org/2000/svg">
<path d="M16.5 25.6667H20.1667V17.9667L23.1 20.9L25.6667 18.3333L18.3333 11L11 18.3333L13.5667 20.9L16.5 17.9667V25.6667ZM18.3333 36.6667C15.7972 36.6667 13.4139 36.1854 11.1833 35.2229C8.95278 34.2604 7.0125 32.9542 5.3625 31.3042C3.7125 29.6542 2.40625 27.7139 1.44375 25.4833C0.48125 23.2528 0 20.8694 0 18.3333C0 15.7972 0.48125 13.4139 1.44375 11.1833C2.40625 8.95278 3.7125 7.0125 5.3625 5.3625C7.0125 3.7125 8.95278 2.40625 11.1833 1.44375C13.4139 0.48125 15.7972 0 18.3333 0C20.8694 0 23.2528 0.48125 25.4833 1.44375C27.7139 2.40625 29.6542 3.7125 31.3042 5.3625C32.9542 7.0125 34.2604 8.95278 35.2229 11.1833C36.1854 13.4139 36.6667 15.7972 36.6667 18.3333C36.6667 20.8694 36.1854 23.2528 35.2229 25.4833C34.2604 27.7139 32.9542 29.6542 31.3042 31.3042C29.6542 32.9542 27.7139 34.2604 25.4833 35.2229C23.2528 36.1854 20.8694 36.6667 18.3333 36.6667Z"/>
</svg>
