<svg width="44" height="44" viewBox="0 0 44 44" fill="#121212" xmlns="http://www.w3.org/2000/svg">
<path d="M34.705 28.9154C33.9533 27.5365 32.8359 23.6349 32.8359 18.539C32.8359 15.4786 31.6943 12.5437 29.6623 10.3797C27.6303 8.21571 24.8744 7 22.0007 7C19.127 7 16.371 8.21571 14.339 10.3797C12.307 12.5437 11.1655 15.4786 11.1655 18.539C11.1655 23.6363 10.0467 27.5365 9.29504 28.9154C9.10309 29.2659 9.00132 29.6642 9.00001 30.07C8.9987 30.4758 9.0979 30.8748 9.28759 31.2268C9.47729 31.5787 9.75077 31.8712 10.0805 32.0746C10.4102 32.2781 10.7844 32.3854 11.1655 32.3857H16.6928C16.9428 33.6884 17.6076 34.8592 18.5748 35.7C19.542 36.5408 20.7522 37 22.0007 37C23.2492 37 24.4594 36.5408 25.4266 35.7C26.3938 34.8592 27.0586 33.6884 27.3086 32.3857H32.8359C33.2168 32.3852 33.5909 32.2777 33.9204 32.0741C34.2499 31.8705 34.5232 31.578 34.7127 31.2261C34.9023 30.8742 35.0014 30.4753 35 30.0696C34.9986 29.664 34.8969 29.2658 34.705 28.9154ZM22.0007 34.6935C21.3287 34.6933 20.6732 34.4712 20.1246 34.058C19.5759 33.6447 19.161 33.0605 18.937 32.3857H25.0643C24.8403 33.0605 24.4254 33.6447 23.8768 34.058C23.3281 34.4712 22.6727 34.6933 22.0007 34.6935ZM11.1655 30.0779C12.2084 28.1682 13.3325 23.743 13.3325 18.539C13.3325 16.0907 14.2458 13.7427 15.8714 12.0115C17.497 10.2804 19.7017 9.30779 22.0007 9.30779C24.2996 9.30779 26.5044 10.2804 28.13 12.0115C29.7556 13.7427 30.6688 16.0907 30.6688 18.539C30.6688 23.7387 31.7903 28.1639 32.8359 30.0779H11.1655Z" />
</svg>
