<svg width="40" height="40" viewBox="0 0 40 40" fill="none" xmlns="http://www.w3.org/2000/svg">
<mask id="mask0_1526_4328" style="mask-type:alpha" maskUnits="userSpaceOnUse" x="0" y="0" width="40" height="40">
<rect width="40" height="40" fill="#D9D9D9"/>
</mask>
<g mask="url(#mask0_1526_4328)">
<path d="M8.84592 34.1667C8.01481 34.1667 7.30481 33.8724 6.71592 33.2838C6.12731 32.6949 5.83301 31.9849 5.83301 31.1538V8.84625C5.83301 8.01514 6.12731 7.30514 6.71592 6.71625C7.30481 6.12764 8.01481 5.83333 8.84592 5.83333H16.2626C16.3673 4.90806 16.7712 4.12125 17.4743 3.47292C18.177 2.8243 19.0188 2.5 19.9997 2.5C20.9911 2.5 21.8383 2.8243 22.5413 3.47292C23.2444 4.12125 23.6429 4.90806 23.7368 5.83333H31.1534C31.9845 5.83333 32.6945 6.12764 33.2834 6.71625C33.872 7.30514 34.1663 8.01514 34.1663 8.84625V31.1538C34.1663 31.9849 33.872 32.6949 33.2834 33.2838C32.6945 33.8724 31.9845 34.1667 31.1534 34.1667H8.84592ZM8.84592 31.6667H31.1534C31.2818 31.6667 31.3993 31.6132 31.5059 31.5063C31.6129 31.3996 31.6663 31.2821 31.6663 31.1538V8.84625C31.6663 8.71792 31.6129 8.60042 31.5059 8.49375C31.3993 8.3868 31.2818 8.33333 31.1534 8.33333H8.84592C8.71759 8.33333 8.60009 8.3868 8.49342 8.49375C8.38648 8.60042 8.33301 8.71792 8.33301 8.84625V31.1538C8.33301 31.2821 8.38648 31.3996 8.49342 31.5063C8.60009 31.6132 8.71759 31.6667 8.84592 31.6667ZM12.083 27.7242H22.9163V25.2246H12.083V27.7242ZM12.083 21.25H27.9163V18.75H12.083V21.25ZM12.083 14.7754H27.9163V12.2758H12.083V14.7754ZM19.9997 7.24375C20.3608 7.24375 20.6594 7.12569 20.8955 6.88958C21.1316 6.65347 21.2497 6.35486 21.2497 5.99375C21.2497 5.63264 21.1316 5.33403 20.8955 5.09792C20.6594 4.8618 20.3608 4.74375 19.9997 4.74375C19.6386 4.74375 19.34 4.8618 19.1038 5.09792C18.8677 5.33403 18.7497 5.63264 18.7497 5.99375C18.7497 6.35486 18.8677 6.65347 19.1038 6.88958C19.34 7.12569 19.6386 7.24375 19.9997 7.24375Z" fill="#137870"/>
</g>
</svg>
