<svg width="60" height="60" viewBox="0 0 60 60" fill="none" xmlns="http://www.w3.org/2000/svg">
<g id="Group 127">
<circle id="Ellipse 13" cx="30" cy="30" r="30" fill="#053643"/>
<g id="photo_camera">
<mask id="mask0_1477_4793" style="mask-type:alpha" maskUnits="userSpaceOnUse" x="16" y="16" width="28" height="28">
<rect id="Bounding box" x="16" y="16" width="28" height="28" fill="#D9D9D9"/>
</mask>
<g mask="url(#mask0_1477_4793)">
<path id="photo_camera_2" d="M30.0833 35.4606C31.4221 35.4606 32.557 35.0075 33.488 34.1013C34.419 33.1952 34.8845 32.0906 34.8845 30.7876C34.8845 29.4845 34.419 28.38 33.488 27.4738C32.557 26.5676 31.4221 26.1146 30.0833 26.1146C28.7446 26.1146 27.6097 26.5676 26.6787 27.4738C25.7477 28.38 25.2822 29.4845 25.2822 30.7876C25.2822 32.0906 25.7477 33.1952 26.6787 34.1013C27.6097 35.0075 28.7446 35.4606 30.0833 35.4606ZM30.0833 33.7576C29.2217 33.7576 28.4978 33.4722 27.9116 32.9014C27.3251 32.3308 27.0319 31.6262 27.0319 30.7876C27.0319 29.949 27.3251 29.2444 27.9116 28.6738C28.4978 28.103 29.2217 27.8176 30.0833 27.8176C30.9449 27.8176 31.6688 28.103 32.2551 28.6738C32.8415 29.2444 33.1348 29.949 33.1348 30.7876C33.1348 31.6262 32.8415 32.3308 32.2551 32.9014C31.6688 33.4722 30.9449 33.7576 30.0833 33.7576ZM21.109 39.3041C20.5197 39.3041 20.0208 39.1054 19.6125 38.7079C19.2042 38.3105 19 37.8249 19 37.2513V24.3238C19 23.7502 19.2042 23.2647 19.6125 22.8672C20.0208 22.4698 20.5197 22.2711 21.109 22.2711H24.6717L26.8301 20H33.3366L35.4949 22.2711H39.0576C39.647 22.2711 40.1458 22.4698 40.5542 22.8672C40.9625 23.2647 41.1667 23.7502 41.1667 24.3238V37.2513C41.1667 37.8249 40.9625 38.3105 40.5542 38.7079C40.1458 39.1054 39.647 39.3041 39.0576 39.3041H21.109ZM21.109 37.6008H39.0576C39.1624 37.6008 39.2485 37.568 39.3157 37.5025C39.383 37.4371 39.4167 37.3533 39.4167 37.2513V24.3238C39.4167 24.2218 39.383 24.1381 39.3157 24.0726C39.2485 24.0071 39.1624 23.9744 39.0576 23.9744H34.7141L32.5736 21.7033H27.5931L25.4525 23.9744H21.109C21.0042 23.9744 20.9182 24.0071 20.8509 24.0726C20.7836 24.1381 20.75 24.2218 20.75 24.3238V37.2513C20.75 37.3533 20.7836 37.4371 20.8509 37.5025C20.9182 37.568 21.0042 37.6008 21.109 37.6008Z" fill="white"/>
</g>
</g>
</g>
</svg>
