<svg width="107" height="108" viewBox="0 0 107 108" fill="none" xmlns="http://www.w3.org/2000/svg">
<path d="M53.5 80.667C55.0111 80.667 56.2787 80.155 57.3027 79.131C58.3267 78.107 58.8369 76.8412 58.8334 75.3337C58.8298 73.8261 58.3178 72.5603 57.2974 71.5363C56.2769 70.5123 55.0111 70.0003 53.5 70.0003C51.9889 70.0003 50.7231 70.5123 49.7027 71.5363C48.6822 72.5603 48.1703 73.8261 48.1667 75.3337C48.1631 76.8412 48.6751 78.1088 49.7027 79.1363C50.7302 80.1639 51.996 80.6741 53.5 80.667ZM48.1667 59.3337H58.8334V27.3337H48.1667V59.3337ZM53.5 107.334C46.1222 107.334 39.1889 105.933 32.7 103.131C26.2111 100.329 20.5667 96.5301 15.7667 91.7337C10.9667 86.9372 7.16758 81.2928 4.36936 74.8003C1.57114 68.3079 0.170249 61.3746 0.166694 54.0003C0.163138 46.6261 1.56403 39.6928 4.36936 33.2003C7.17469 26.7079 10.9738 21.0634 15.7667 16.267C20.5596 11.4705 26.204 7.67144 32.7 4.86966C39.196 2.06788 46.1294 0.666992 53.5 0.666992C60.8707 0.666992 67.804 2.06788 74.3 4.86966C80.796 7.67144 86.4405 11.4705 91.2334 16.267C96.0263 21.0634 99.8271 26.7079 102.636 33.2003C105.445 39.6928 106.844 46.6261 106.833 54.0003C106.823 61.3746 105.422 68.3079 102.631 74.8003C99.8396 81.2928 96.0405 86.9372 91.2334 91.7337C86.4263 96.5301 80.7818 100.331 74.3 103.136C67.8182 105.942 60.8849 107.341 53.5 107.334Z" fill="#D33248"/>
</svg>
